<?xml version="1.0" encoding="UTF-8" standalone="no"?>
<!-- Created with Inkscape (http://www.inkscape.org/) -->

<svg
   xmlns:dc="http://purl.org/dc/elements/1.1/"
   xmlns:cc="http://creativecommons.org/ns#"
   xmlns:rdf="http://www.w3.org/1999/02/22-rdf-syntax-ns#"
   xmlns:svg="http://www.w3.org/2000/svg"
   xmlns="http://www.w3.org/2000/svg"
   xmlns:sodipodi="http://sodipodi.sourceforge.net/DTD/sodipodi-0.dtd"
   xmlns:inkscape="http://www.inkscape.org/namespaces/inkscape"
   width="42.333336mm"
   height="62.575375mm"
   viewBox="0 0 150.00001 221.72377"
   id="svg2"
   version="1.1"
   inkscape:version="0.91 r13725"
   sodipodi:docname="percolator.svg"
   inkscape:export-filename="/Users/jwass/sc/event-data-percolator/doc/percolator-render.png"
   inkscape:export-xdpi="90"
   inkscape:export-ydpi="90">
  <defs
     id="defs4" />
  <sodipodi:namedview
     id="base"
     pagecolor="#ffffff"
     bordercolor="#666666"
     borderopacity="1.0"
     inkscape:pageopacity="0.0"
     inkscape:pageshadow="2"
     inkscape:zoom="1"
     inkscape:cx="-16.92914"
     inkscape:cy="21.698915"
     inkscape:document-units="px"
     inkscape:current-layer="layer1"
     showgrid="true"
     showguides="false"
     inkscape:window-width="1280"
     inkscape:window-height="751"
     inkscape:window-x="0"
     inkscape:window-y="1"
     inkscape:window-maximized="1"
     fit-margin-top="0"
     fit-margin-left="0"
     fit-margin-right="0"
     fit-margin-bottom="0">
    <inkscape:grid
       type="xygrid"
       id="grid4232"
       empspacing="0"
       spacingx="10"
       spacingy="10"
       originx="-0.99999994"
       originy="3.4826842" />
  </sodipodi:namedview>
  <metadata
     id="metadata7">
    <rdf:RDF>
      <cc:Work
         rdf:about="">
        <dc:format>image/svg+xml</dc:format>
        <dc:type
           rdf:resource="http://purl.org/dc/dcmitype/StillImage" />
        <dc:title></dc:title>
      </cc:Work>
    </rdf:RDF>
  </metadata>
  <g
     inkscape:label="Layer 1"
     inkscape:groupmode="layer"
     id="layer1"
     transform="translate(-1,-834.12119)">
    <path
       style="fill:#000000;fill-opacity:1;fill-rule:evenodd;stroke:none;stroke-width:1px;stroke-linecap:butt;stroke-linejoin:miter;stroke-opacity:1"
       d="m 56.821059,910.3139 -4.050296,58.72929 c 0,0 -2.417558,8.27301 1.215088,11.54334 3.632646,3.27033 11.813363,5.37522 17.720045,5.37522 5.906682,0 14.012248,-2.35795 17.720045,-5.37522 3.707797,-3.01727 2.227662,-10.73328 2.227662,-10.73328 L 88.818395,910.3139 c -10.567346,3.05138 -21.220948,3.42887 -31.997336,0 z"
       id="path3347"
       inkscape:connector-curvature="0"
       sodipodi:nodetypes="cczzzccc" />
    <path
       style="fill:#000000;fill-opacity:1;fill-rule:nonzero;stroke:none;stroke-width:1px;stroke-linecap:butt;stroke-linejoin:miter;stroke-opacity:1"
       d="m 72.686668,890.8452 c -0.682523,-0.01 -1.977404,0.32692 -2.244071,1.08004 0.922026,3.35899 1.236523,6.23942 0.41993,9.53211 -5.739821,2.98241 -14.195859,2.20185 -14.063423,6.89555 l 0.0084,0.0468 c 0,0 -0.134943,3.42555 16.127724,3.42555 15.907766,0 15.928353,-3.42555 15.928353,-3.42555 l 0.0089,-0.0468 c 0.132433,-4.6937 -8.324099,-3.91314 -14.063919,-6.89555 -0.816594,-3.29269 -0.502099,-6.17312 0.419929,-9.53211 -0.287853,-0.81296 -1.772381,-1.14066 -2.392952,-1.07096 -0.04555,-0.005 -0.09483,-0.008 -0.148881,-0.009 z"
       id="path4149"
       inkscape:connector-curvature="0"
       sodipodi:nodetypes="cccccscccccsc" />
    <path
       style="fill:#000000;fill-opacity:1;fill-rule:evenodd;stroke:none;stroke-width:1px;stroke-linecap:butt;stroke-linejoin:miter;stroke-opacity:1"
       d="m 40.054231,911.66167 4.106162,-0.2933 c 2.91288,7.02164 5.841565,14.02408 12.318485,16.71795 l -2.248613,33.63142 C 43.246447,941.61973 46.755319,937.71327 40.054231,911.66167 Z"
       id="path4160"
       inkscape:connector-curvature="0"
       sodipodi:nodetypes="ccccc" />
    <g
       id="g4234"
       transform="matrix(0.24432814,0,0,0.24432814,0.75567186,797.87234)">
      <path
         inkscape:connector-curvature="0"
         id="path4167"
         d="M 164,148.36133 A 55,38 0 0 0 111.50586,175.03906 44.5,28 0 0 0 96.5,173.36133 44.5,28 0 0 0 52.503906,197.39453 50.5,34 0 0 0 51.5,197.36133 50.5,34 0 0 0 1,231.36133 50.5,34 0 0 0 44.84375,265.02734 44,27 0 0 0 87,284.36133 44,27 0 0 0 93.742188,284.02344 76.5,56.5 0 0 0 157.5,309.36133 76.5,56.5 0 0 0 204.64844,297.33398 29.5,25.5 0 0 0 220.5,301.36133 29.5,25.5 0 0 0 250,275.86133 29.5,25.5 0 0 0 233.97656,253.20508 76.5,56.5 0 0 0 234,252.86133 76.5,56.5 0 0 0 233.28516,245.6875 40,33.5 0 0 0 253,216.86133 40,33.5 0 0 0 218.86523,183.76562 55,38 0 0 0 164,148.36133 Z"
         style="fill:#000000;fill-opacity:1;fill-rule:nonzero;stroke:none;stroke-width:1.60000002;stroke-linejoin:round;stroke-miterlimit:4;stroke-dasharray:none;stroke-dashoffset:0;stroke-opacity:1" />
      <ellipse
         ry="19.5"
         rx="30.5"
         cy="353.86221"
         cx="131.5"
         id="path4181"
         style="fill:#000000;fill-opacity:1;fill-rule:nonzero;stroke:none;stroke-width:1.60000002;stroke-linejoin:round;stroke-miterlimit:4;stroke-dasharray:none;stroke-dashoffset:0;stroke-opacity:1" />
      <ellipse
         ry="11"
         rx="12"
         cy="410.36221"
         cx="160"
         id="path4183"
         style="fill:#000000;fill-opacity:1;fill-rule:nonzero;stroke:none;stroke-width:1.60000002;stroke-linejoin:round;stroke-miterlimit:4;stroke-dasharray:none;stroke-dashoffset:0;stroke-opacity:1" />
    </g>
    <path
       sodipodi:nodetypes="ccccc"
       inkscape:connector-curvature="0"
       id="path4186"
       d="m 108.32827,977.61389 -4.03847,0.79838 c -3.7581,-6.60793 -7.529526,-13.19487 -14.289656,-15.06786 l -1.923891,-33.65156 c 13.382837,18.58693 10.383506,22.897 20.252017,47.92104 z"
       style="fill:#000000;fill-opacity:1;fill-rule:evenodd;stroke:none;stroke-width:1px;stroke-linecap:butt;stroke-linejoin:miter;stroke-opacity:1" />
    <path
       style="fill:#000000;fill-opacity:1;fill-rule:evenodd;stroke:#000000;stroke-width:0.04410399px;stroke-linecap:butt;stroke-linejoin:miter;stroke-opacity:1"
       d="m 12.237388,996.32606 c 13.61869,-1.69313 21.278942,-0.88757 28.743636,0 -0.550168,6.86824 2.538645,24.66984 -5.170814,33.76234 l -17.109306,0 c -7.772233,-7.0809 -5.051949,-21.9563 -6.463516,-33.76234 z"
       id="path4217"
       inkscape:connector-curvature="0"
       sodipodi:nodetypes="ccccc" />
    <path
       style="fill:#000000;fill-opacity:1;fill-rule:evenodd;stroke:#000000;stroke-width:0.04410399px;stroke-linecap:butt;stroke-linejoin:miter;stroke-opacity:1"
       d="m 46.067853,1000.2147 c -1.849098,0.01 -3.920121,0.3767 -6.075327,0.978 l -1.140673,23.1926 c 5.636917,-5.7342 16.21526,-10.1763 14.599972,-18.6301 -0.742075,-4.0712 -3.597729,-5.5586 -7.383972,-5.5405 z m 0.04402,2.0838 c 2.827424,-0.029 5.239118,2.3564 5.210815,4.5213 -0.712502,5.3423 -4.193714,9.4342 -11.190267,11.9385 l 0.240247,-12.1666 c 1.675415,-3.1237 3.804651,-4.2735 5.739205,-4.2932 z"
       id="path4219"
       inkscape:connector-curvature="0" />
    <path
       inkscape:connector-curvature="0"
       id="path4224"
       d="m 11.069654,1026.027 c 1.799706,-0.4246 3.734862,-1.2491 5.699521,-2.3199 l -4.106583,-22.8546 c -4.2022677,6.8555 -13.51000228,13.5637 -10.0341313,21.4373 1.6390158,3.7999 4.7560865,4.6066 8.4411933,3.7372 z m -0.511722,-2.0205 c -2.7484591,0.6641 -5.6349581,-1.1173 -6.0944421,-3.233 -0.5077028,-5.3656 1.9636372,-10.1358 8.2173761,-14.1501 l 2.503226,11.9087 c -0.929676,3.4206 -2.745635,5.0199 -4.62616,5.4744 z"
       style="fill:#000000;fill-opacity:1;fill-rule:evenodd;stroke:#000000;stroke-width:0.04410399px;stroke-linecap:butt;stroke-linejoin:miter;stroke-opacity:1" />
    <g
       id="g4239"
       transform="matrix(-0.24432814,0,0,-0.24432814,150.84055,1092.0938)">
      <path
         style="fill:#000000;fill-opacity:1;fill-rule:nonzero;stroke:none;stroke-width:1.60000002;stroke-linejoin:round;stroke-miterlimit:4;stroke-dasharray:none;stroke-dashoffset:0;stroke-opacity:1"
         d="M 164,148.36133 A 55,38 0 0 0 111.50586,175.03906 44.5,28 0 0 0 96.5,173.36133 44.5,28 0 0 0 52.503906,197.39453 50.5,34 0 0 0 51.5,197.36133 50.5,34 0 0 0 1,231.36133 50.5,34 0 0 0 44.84375,265.02734 44,27 0 0 0 87,284.36133 44,27 0 0 0 93.742188,284.02344 76.5,56.5 0 0 0 157.5,309.36133 76.5,56.5 0 0 0 204.64844,297.33398 29.5,25.5 0 0 0 220.5,301.36133 29.5,25.5 0 0 0 250,275.86133 29.5,25.5 0 0 0 233.97656,253.20508 76.5,56.5 0 0 0 234,252.86133 76.5,56.5 0 0 0 233.28516,245.6875 40,33.5 0 0 0 253,216.86133 40,33.5 0 0 0 218.86523,183.76562 55,38 0 0 0 164,148.36133 Z"
         id="path4241"
         inkscape:connector-curvature="0" />
      <ellipse
         style="fill:#000000;fill-opacity:1;fill-rule:nonzero;stroke:none;stroke-width:1.60000002;stroke-linejoin:round;stroke-miterlimit:4;stroke-dasharray:none;stroke-dashoffset:0;stroke-opacity:1"
         id="ellipse4243"
         cx="131.5"
         cy="353.86221"
         rx="30.5"
         ry="19.5" />
      <ellipse
         style="fill:#000000;fill-opacity:1;fill-rule:nonzero;stroke:none;stroke-width:1.60000002;stroke-linejoin:round;stroke-miterlimit:4;stroke-dasharray:none;stroke-dashoffset:0;stroke-opacity:1"
         id="ellipse4245"
         cx="160"
         cy="410.36221"
         rx="12"
         ry="11" />
    </g>
    <g
       id="g4253"
       transform="matrix(-0.24432814,0,0,-0.24432814,246.02922,947.72031)">
      <path
         style="fill:#000000;fill-opacity:1;fill-rule:evenodd;stroke:#000000;stroke-width:0.18051131px;stroke-linecap:butt;stroke-linejoin:miter;stroke-opacity:1"
         d="m 431.47577,222.58743 c 55.73935,-6.92977 87.09166,-3.63271 117.64358,0 -2.25176,28.11074 10.39031,100.96996 -21.1634,138.18452 l -70.02593,0 C 426.11938,331.79062 437.25311,270.90777 431.47577,222.58743 Z"
         id="path4247"
         inkscape:connector-curvature="0"
         sodipodi:nodetypes="ccccc" />
      <path
         style="fill:#000000;fill-opacity:1;fill-rule:evenodd;stroke:#000000;stroke-width:0.18051131px;stroke-linecap:butt;stroke-linejoin:miter;stroke-opacity:1"
         d="m 569.93901,238.50304 c -7.56809,0.0361 -16.04449,1.54181 -24.86544,4.00297 l -4.66861,94.92392 c 23.07109,-23.4695 66.36673,-41.65018 59.75559,-76.25051 -3.03721,-16.66286 -14.72499,-22.75032 -30.22154,-22.67638 z m 0.18016,8.5288 c 11.57224,-0.11779 21.44296,9.64446 21.32712,18.50488 -2.91617,21.86516 -17.16427,38.6127 -45.80016,48.86251 l 0.9833,-49.79609 c 6.85723,-12.78476 15.57189,-17.49071 23.48974,-17.5713 z"
         id="path4249"
         inkscape:connector-curvature="0" />
      <path
         inkscape:connector-curvature="0"
         id="path4251"
         d="m 426.69641,344.14898 c 7.36593,-1.73789 15.28625,-5.11207 23.32732,-9.49472 l -16.80766,-93.54063 c -17.19928,28.05846 -55.2945,55.51395 -41.06826,87.73978 6.70826,15.55233 19.46598,18.85413 34.5486,15.29557 z m -2.09441,-8.2696 c -11.24905,2.71836 -23.06307,-4.57283 -24.94367,-13.23215 -2.07796,-21.96067 8.03688,-41.48447 33.63254,-57.91417 l 10.24534,48.74064 c -3.80503,13.99977 -11.23749,20.54574 -18.93421,22.40568 z"
         style="fill:#000000;fill-opacity:1;fill-rule:evenodd;stroke:#000000;stroke-width:0.18051131px;stroke-linecap:butt;stroke-linejoin:miter;stroke-opacity:1" />
    </g>
  </g>
</svg>
